<mxfile host="Electron" modified="2023-06-02T04:18:02.889Z" agent="Mozilla/5.0 (Macintosh; Intel Mac OS X 10_15_7) AppleWebKit/537.36 (KHTML, like Gecko) draw.io/21.2.8 Chrome/112.0.5615.165 Electron/24.2.0 Safari/537.36" etag="dQKy0q40PJ991KE_jf_V" version="21.2.8" type="device">
  <diagram name="Flappy Bird" id="e7e014a7-5840-1c2e-5031-d8a46d1fe8dd">
    <mxGraphModel dx="915" dy="659" grid="1" gridSize="10" guides="1" tooltips="1" connect="1" arrows="1" fold="1" page="1" pageScale="1" pageWidth="827" pageHeight="1169" background="#ffffff" math="0" shadow="0">
      <root>
        <mxCell id="0" />
        <mxCell id="1" parent="0" />
        <mxCell id="xNEL1DP7AEfZNfFO2z0W-1" value="Entity 实体" style="swimlane;startSize=40;fillColor=#f8cecc;strokeColor=#b85450;swimlaneFillColor=none;sketch=0;" parent="1" vertex="1">
          <mxGeometry x="80" y="210" width="140" height="360" as="geometry" />
        </mxCell>
        <mxCell id="xNEL1DP7AEfZNfFO2z0W-4" value="背景精灵" style="rounded=0;whiteSpace=wrap;html=1;sketch=0;fillColor=#f8cecc;strokeColor=#b85450;" parent="xNEL1DP7AEfZNfFO2z0W-1" vertex="1">
          <mxGeometry x="20" y="60" width="100" height="30" as="geometry" />
        </mxCell>
        <mxCell id="xNEL1DP7AEfZNfFO2z0W-5" value="地面精灵" style="rounded=0;whiteSpace=wrap;html=1;sketch=0;fillColor=#f8cecc;strokeColor=#b85450;" parent="xNEL1DP7AEfZNfFO2z0W-1" vertex="1">
          <mxGeometry x="20" y="110" width="100" height="30" as="geometry" />
        </mxCell>
        <mxCell id="xNEL1DP7AEfZNfFO2z0W-6" value="障碍物精灵" style="rounded=0;whiteSpace=wrap;html=1;sketch=0;fillColor=#f8cecc;strokeColor=#b85450;" parent="xNEL1DP7AEfZNfFO2z0W-1" vertex="1">
          <mxGeometry x="20" y="160" width="100" height="30" as="geometry" />
        </mxCell>
        <mxCell id="xNEL1DP7AEfZNfFO2z0W-7" value="小鸟精灵" style="rounded=0;whiteSpace=wrap;html=1;sketch=0;fillColor=#f8cecc;strokeColor=#b85450;" parent="xNEL1DP7AEfZNfFO2z0W-1" vertex="1">
          <mxGeometry x="20" y="210" width="100" height="30" as="geometry" />
        </mxCell>
        <mxCell id="xNEL1DP7AEfZNfFO2z0W-8" value="计分器精灵" style="rounded=0;whiteSpace=wrap;html=1;sketch=0;fillColor=#f8cecc;strokeColor=#b85450;" parent="xNEL1DP7AEfZNfFO2z0W-1" vertex="1">
          <mxGeometry x="20" y="260" width="100" height="30" as="geometry" />
        </mxCell>
        <mxCell id="xNEL1DP7AEfZNfFO2z0W-9" value="开始按钮精灵" style="rounded=0;whiteSpace=wrap;html=1;sketch=0;fillColor=#f8cecc;strokeColor=#b85450;" parent="xNEL1DP7AEfZNfFO2z0W-1" vertex="1">
          <mxGeometry x="20" y="310" width="100" height="30" as="geometry" />
        </mxCell>
        <mxCell id="xNEL1DP7AEfZNfFO2z0W-2" value="Component 组件" style="swimlane;startSize=40;fillColor=#ffe6cc;strokeColor=#d79b00;swimlaneFillColor=none;sketch=0;" parent="1" vertex="1">
          <mxGeometry x="280" y="160" width="140" height="460" as="geometry" />
        </mxCell>
        <mxCell id="xNEL1DP7AEfZNfFO2z0W-10" value="位置" style="rounded=0;whiteSpace=wrap;html=1;sketch=0;fillColor=#ffe6cc;strokeColor=#d79b00;glass=0;" parent="xNEL1DP7AEfZNfFO2z0W-2" vertex="1">
          <mxGeometry x="20" y="60" width="100" height="30" as="geometry" />
        </mxCell>
        <mxCell id="xNEL1DP7AEfZNfFO2z0W-11" value="尺寸" style="rounded=0;whiteSpace=wrap;html=1;sketch=0;fillColor=#ffe6cc;strokeColor=#d79b00;" parent="xNEL1DP7AEfZNfFO2z0W-2" vertex="1">
          <mxGeometry x="20" y="110" width="100" height="30" as="geometry" />
        </mxCell>
        <mxCell id="xNEL1DP7AEfZNfFO2z0W-12" value="速度" style="rounded=0;whiteSpace=wrap;html=1;sketch=0;fillColor=#ffe6cc;strokeColor=#d79b00;" parent="xNEL1DP7AEfZNfFO2z0W-2" vertex="1">
          <mxGeometry x="20" y="160" width="100" height="30" as="geometry" />
        </mxCell>
        <mxCell id="xNEL1DP7AEfZNfFO2z0W-13" value="角度" style="rounded=0;whiteSpace=wrap;html=1;sketch=0;fillColor=#ffe6cc;strokeColor=#d79b00;" parent="xNEL1DP7AEfZNfFO2z0W-2" vertex="1">
          <mxGeometry x="20" y="210" width="100" height="30" as="geometry" />
        </mxCell>
        <mxCell id="xNEL1DP7AEfZNfFO2z0W-14" value="图片" style="rounded=0;whiteSpace=wrap;html=1;sketch=0;fillColor=#ffe6cc;strokeColor=#d79b00;" parent="xNEL1DP7AEfZNfFO2z0W-2" vertex="1">
          <mxGeometry x="20" y="260" width="100" height="30" as="geometry" />
        </mxCell>
        <mxCell id="xNEL1DP7AEfZNfFO2z0W-15" value="文本" style="rounded=0;whiteSpace=wrap;html=1;sketch=0;fillColor=#ffe6cc;strokeColor=#d79b00;" parent="xNEL1DP7AEfZNfFO2z0W-2" vertex="1">
          <mxGeometry x="20" y="310" width="100" height="30" as="geometry" />
        </mxCell>
        <mxCell id="xNEL1DP7AEfZNfFO2z0W-16" value="得分" style="rounded=0;whiteSpace=wrap;html=1;sketch=0;fillColor=#ffe6cc;strokeColor=#d79b00;" parent="xNEL1DP7AEfZNfFO2z0W-2" vertex="1">
          <mxGeometry x="20" y="360" width="100" height="30" as="geometry" />
        </mxCell>
        <mxCell id="xNEL1DP7AEfZNfFO2z0W-17" value="渲染配置" style="rounded=0;whiteSpace=wrap;html=1;sketch=0;fillColor=#ffe6cc;strokeColor=#d79b00;" parent="xNEL1DP7AEfZNfFO2z0W-2" vertex="1">
          <mxGeometry x="20" y="410" width="100" height="30" as="geometry" />
        </mxCell>
        <mxCell id="xNEL1DP7AEfZNfFO2z0W-54" style="edgeStyle=elbowEdgeStyle;rounded=0;orthogonalLoop=1;jettySize=auto;elbow=vertical;html=1;exitX=0.5;exitY=1;exitDx=0;exitDy=0;entryX=0.5;entryY=1;entryDx=0;entryDy=0;fontSize=11;endArrow=none;endFill=0;strokeColor=#000000;strokeWidth=1;" parent="1" source="xNEL1DP7AEfZNfFO2z0W-3" target="xNEL1DP7AEfZNfFO2z0W-52" edge="1">
          <mxGeometry relative="1" as="geometry">
            <Array as="points">
              <mxPoint x="640" y="640" />
            </Array>
          </mxGeometry>
        </mxCell>
        <mxCell id="xNEL1DP7AEfZNfFO2z0W-3" value="System 系统" style="swimlane;startSize=40;fillColor=#e1d5e7;strokeColor=#9673a6;swimlaneFillColor=none;sketch=0;" parent="1" vertex="1">
          <mxGeometry x="480" y="185" width="140" height="410" as="geometry" />
        </mxCell>
        <mxCell id="xNEL1DP7AEfZNfFO2z0W-36" value="事件触发" style="rounded=0;whiteSpace=wrap;html=1;sketch=0;fillColor=#e1d5e7;strokeColor=#9673a6;" parent="xNEL1DP7AEfZNfFO2z0W-3" vertex="1">
          <mxGeometry x="20" y="60" width="100" height="30" as="geometry" />
        </mxCell>
        <mxCell id="xNEL1DP7AEfZNfFO2z0W-37" value="障碍物生成" style="rounded=0;whiteSpace=wrap;html=1;sketch=0;fillColor=#e1d5e7;strokeColor=#9673a6;" parent="xNEL1DP7AEfZNfFO2z0W-3" vertex="1">
          <mxGeometry x="20" y="110" width="100" height="30" as="geometry" />
        </mxCell>
        <mxCell id="xNEL1DP7AEfZNfFO2z0W-38" value="速度计算" style="rounded=0;whiteSpace=wrap;html=1;sketch=0;fillColor=#e1d5e7;strokeColor=#9673a6;" parent="xNEL1DP7AEfZNfFO2z0W-3" vertex="1">
          <mxGeometry x="20" y="160" width="100" height="30" as="geometry" />
        </mxCell>
        <mxCell id="xNEL1DP7AEfZNfFO2z0W-39" value="旋转计算" style="rounded=0;whiteSpace=wrap;html=1;sketch=0;fillColor=#e1d5e7;strokeColor=#9673a6;" parent="xNEL1DP7AEfZNfFO2z0W-3" vertex="1">
          <mxGeometry x="20" y="210" width="100" height="30" as="geometry" />
        </mxCell>
        <mxCell id="xNEL1DP7AEfZNfFO2z0W-40" value="碰撞检测" style="rounded=0;whiteSpace=wrap;html=1;sketch=0;fillColor=#e1d5e7;strokeColor=#9673a6;" parent="xNEL1DP7AEfZNfFO2z0W-3" vertex="1">
          <mxGeometry x="20" y="260" width="100" height="30" as="geometry" />
        </mxCell>
        <mxCell id="xNEL1DP7AEfZNfFO2z0W-41" value="分数计算" style="rounded=0;whiteSpace=wrap;html=1;sketch=0;fillColor=#e1d5e7;strokeColor=#9673a6;" parent="xNEL1DP7AEfZNfFO2z0W-3" vertex="1">
          <mxGeometry x="20" y="310" width="100" height="30" as="geometry" />
        </mxCell>
        <mxCell id="xNEL1DP7AEfZNfFO2z0W-42" value="canvas渲染" style="rounded=0;whiteSpace=wrap;html=1;sketch=0;fillColor=#e1d5e7;strokeColor=#9673a6;" parent="xNEL1DP7AEfZNfFO2z0W-3" vertex="1">
          <mxGeometry x="20" y="360" width="100" height="30" as="geometry" />
        </mxCell>
        <mxCell id="xNEL1DP7AEfZNfFO2z0W-25" style="rounded=0;orthogonalLoop=1;jettySize=auto;html=1;exitX=1;exitY=0.5;exitDx=0;exitDy=0;entryX=0;entryY=0.5;entryDx=0;entryDy=0;fontSize=11;endArrow=none;endFill=0;strokeColor=#000000;strokeWidth=1;dashed=1;" parent="1" source="xNEL1DP7AEfZNfFO2z0W-7" target="xNEL1DP7AEfZNfFO2z0W-10" edge="1">
          <mxGeometry relative="1" as="geometry" />
        </mxCell>
        <mxCell id="xNEL1DP7AEfZNfFO2z0W-30" style="rounded=0;orthogonalLoop=1;jettySize=auto;html=1;exitX=1;exitY=0.5;exitDx=0;exitDy=0;entryX=0;entryY=0.5;entryDx=0;entryDy=0;fontSize=11;endArrow=none;endFill=0;strokeColor=#000000;strokeWidth=1;dashed=1;" parent="1" source="xNEL1DP7AEfZNfFO2z0W-7" target="xNEL1DP7AEfZNfFO2z0W-13" edge="1">
          <mxGeometry relative="1" as="geometry" />
        </mxCell>
        <mxCell id="xNEL1DP7AEfZNfFO2z0W-31" style="rounded=0;orthogonalLoop=1;jettySize=auto;html=1;exitX=1;exitY=0.5;exitDx=0;exitDy=0;entryX=0;entryY=0.5;entryDx=0;entryDy=0;fontSize=11;endArrow=none;endFill=0;strokeColor=#000000;strokeWidth=1;dashed=1;" parent="1" source="xNEL1DP7AEfZNfFO2z0W-7" target="xNEL1DP7AEfZNfFO2z0W-14" edge="1">
          <mxGeometry relative="1" as="geometry" />
        </mxCell>
        <mxCell id="xNEL1DP7AEfZNfFO2z0W-33" style="rounded=0;orthogonalLoop=1;jettySize=auto;html=1;exitX=1;exitY=0.5;exitDx=0;exitDy=0;entryX=0;entryY=0.5;entryDx=0;entryDy=0;fontSize=11;endArrow=none;endFill=0;strokeColor=#000000;strokeWidth=1;dashed=1;" parent="1" source="xNEL1DP7AEfZNfFO2z0W-7" target="xNEL1DP7AEfZNfFO2z0W-17" edge="1">
          <mxGeometry relative="1" as="geometry" />
        </mxCell>
        <mxCell id="xNEL1DP7AEfZNfFO2z0W-34" style="edgeStyle=none;rounded=0;orthogonalLoop=1;jettySize=auto;html=1;exitX=1;exitY=0.5;exitDx=0;exitDy=0;entryX=0;entryY=0.5;entryDx=0;entryDy=0;fontSize=11;endArrow=none;endFill=0;strokeColor=#000000;strokeWidth=1;dashed=1;" parent="1" source="xNEL1DP7AEfZNfFO2z0W-7" target="xNEL1DP7AEfZNfFO2z0W-11" edge="1">
          <mxGeometry relative="1" as="geometry" />
        </mxCell>
        <mxCell id="xNEL1DP7AEfZNfFO2z0W-35" style="edgeStyle=none;rounded=0;orthogonalLoop=1;jettySize=auto;html=1;exitX=1;exitY=0.5;exitDx=0;exitDy=0;entryX=0;entryY=0.5;entryDx=0;entryDy=0;fontSize=11;endArrow=none;endFill=0;strokeColor=#000000;strokeWidth=1;dashed=1;" parent="1" source="xNEL1DP7AEfZNfFO2z0W-7" target="xNEL1DP7AEfZNfFO2z0W-12" edge="1">
          <mxGeometry relative="1" as="geometry" />
        </mxCell>
        <mxCell id="xNEL1DP7AEfZNfFO2z0W-43" style="rounded=0;orthogonalLoop=1;jettySize=auto;html=1;exitX=1;exitY=0.5;exitDx=0;exitDy=0;entryX=0;entryY=0.5;entryDx=0;entryDy=0;dashed=1;fontSize=11;endArrow=none;endFill=0;strokeColor=#000000;strokeWidth=1;" parent="1" source="xNEL1DP7AEfZNfFO2z0W-10" target="xNEL1DP7AEfZNfFO2z0W-38" edge="1">
          <mxGeometry relative="1" as="geometry" />
        </mxCell>
        <mxCell id="xNEL1DP7AEfZNfFO2z0W-44" style="edgeStyle=none;rounded=0;orthogonalLoop=1;jettySize=auto;html=1;exitX=1;exitY=0.5;exitDx=0;exitDy=0;entryX=0;entryY=0.5;entryDx=0;entryDy=0;dashed=1;fontSize=11;endArrow=none;endFill=0;strokeColor=#000000;strokeWidth=1;" parent="1" source="xNEL1DP7AEfZNfFO2z0W-11" target="xNEL1DP7AEfZNfFO2z0W-38" edge="1">
          <mxGeometry relative="1" as="geometry" />
        </mxCell>
        <mxCell id="xNEL1DP7AEfZNfFO2z0W-45" style="edgeStyle=none;rounded=0;orthogonalLoop=1;jettySize=auto;html=1;exitX=1;exitY=0.5;exitDx=0;exitDy=0;entryX=0;entryY=0.5;entryDx=0;entryDy=0;dashed=1;fontSize=11;endArrow=none;endFill=0;strokeColor=#000000;strokeWidth=1;" parent="1" source="xNEL1DP7AEfZNfFO2z0W-12" target="xNEL1DP7AEfZNfFO2z0W-38" edge="1">
          <mxGeometry relative="1" as="geometry" />
        </mxCell>
        <mxCell id="xNEL1DP7AEfZNfFO2z0W-46" style="edgeStyle=none;rounded=0;orthogonalLoop=1;jettySize=auto;html=1;exitX=1;exitY=0.5;exitDx=0;exitDy=0;entryX=0;entryY=0.5;entryDx=0;entryDy=0;dashed=1;fontSize=11;endArrow=none;endFill=0;strokeColor=#000000;strokeWidth=1;" parent="1" source="xNEL1DP7AEfZNfFO2z0W-10" target="xNEL1DP7AEfZNfFO2z0W-42" edge="1">
          <mxGeometry relative="1" as="geometry" />
        </mxCell>
        <mxCell id="xNEL1DP7AEfZNfFO2z0W-47" style="edgeStyle=none;rounded=0;orthogonalLoop=1;jettySize=auto;html=1;exitX=1;exitY=0.5;exitDx=0;exitDy=0;entryX=0;entryY=0.5;entryDx=0;entryDy=0;dashed=1;fontSize=11;endArrow=none;endFill=0;strokeColor=#000000;strokeWidth=1;" parent="1" source="xNEL1DP7AEfZNfFO2z0W-11" target="xNEL1DP7AEfZNfFO2z0W-42" edge="1">
          <mxGeometry relative="1" as="geometry" />
        </mxCell>
        <mxCell id="xNEL1DP7AEfZNfFO2z0W-48" style="edgeStyle=none;rounded=0;orthogonalLoop=1;jettySize=auto;html=1;exitX=1;exitY=0.5;exitDx=0;exitDy=0;entryX=0;entryY=0.5;entryDx=0;entryDy=0;dashed=1;fontSize=11;endArrow=none;endFill=0;strokeColor=#000000;strokeWidth=1;" parent="1" source="xNEL1DP7AEfZNfFO2z0W-13" target="xNEL1DP7AEfZNfFO2z0W-42" edge="1">
          <mxGeometry relative="1" as="geometry" />
        </mxCell>
        <mxCell id="xNEL1DP7AEfZNfFO2z0W-49" style="edgeStyle=none;rounded=0;orthogonalLoop=1;jettySize=auto;html=1;exitX=1;exitY=0.5;exitDx=0;exitDy=0;entryX=0;entryY=0.5;entryDx=0;entryDy=0;dashed=1;fontSize=11;endArrow=none;endFill=0;strokeColor=#000000;strokeWidth=1;" parent="1" source="xNEL1DP7AEfZNfFO2z0W-14" target="xNEL1DP7AEfZNfFO2z0W-42" edge="1">
          <mxGeometry relative="1" as="geometry" />
        </mxCell>
        <mxCell id="xNEL1DP7AEfZNfFO2z0W-50" style="edgeStyle=none;rounded=0;orthogonalLoop=1;jettySize=auto;html=1;exitX=1;exitY=0.5;exitDx=0;exitDy=0;entryX=0;entryY=0.5;entryDx=0;entryDy=0;dashed=1;fontSize=11;endArrow=none;endFill=0;strokeColor=#000000;strokeWidth=1;" parent="1" source="xNEL1DP7AEfZNfFO2z0W-15" target="xNEL1DP7AEfZNfFO2z0W-42" edge="1">
          <mxGeometry relative="1" as="geometry" />
        </mxCell>
        <mxCell id="xNEL1DP7AEfZNfFO2z0W-51" style="edgeStyle=none;rounded=0;orthogonalLoop=1;jettySize=auto;html=1;exitX=1;exitY=0.5;exitDx=0;exitDy=0;entryX=0;entryY=0.5;entryDx=0;entryDy=0;dashed=1;fontSize=11;endArrow=none;endFill=0;strokeColor=#000000;strokeWidth=1;" parent="1" source="xNEL1DP7AEfZNfFO2z0W-17" target="xNEL1DP7AEfZNfFO2z0W-42" edge="1">
          <mxGeometry relative="1" as="geometry" />
        </mxCell>
        <mxCell id="xNEL1DP7AEfZNfFO2z0W-53" style="edgeStyle=elbowEdgeStyle;rounded=0;orthogonalLoop=1;jettySize=auto;html=1;exitX=0.5;exitY=0;exitDx=0;exitDy=0;entryX=0.5;entryY=0;entryDx=0;entryDy=0;fontSize=11;endArrow=classic;endFill=1;strokeColor=#000000;strokeWidth=1;elbow=vertical;" parent="1" source="xNEL1DP7AEfZNfFO2z0W-52" target="xNEL1DP7AEfZNfFO2z0W-3" edge="1">
          <mxGeometry relative="1" as="geometry">
            <Array as="points">
              <mxPoint x="640" y="120" />
            </Array>
          </mxGeometry>
        </mxCell>
        <mxCell id="xNEL1DP7AEfZNfFO2z0W-52" value="requestAnimationFrame" style="rounded=0;whiteSpace=wrap;html=1;sketch=0;fillColor=#d5e8d4;strokeColor=#82b366;" parent="1" vertex="1">
          <mxGeometry x="660" y="375" width="140" height="30" as="geometry" />
        </mxCell>
        <mxCell id="xNEL1DP7AEfZNfFO2z0W-57" value="循环执行" style="text;html=1;strokeColor=none;fillColor=none;align=center;verticalAlign=middle;whiteSpace=wrap;rounded=0;glass=0;sketch=1;fontSize=12;" parent="1" vertex="1">
          <mxGeometry x="610" y="90" width="60" height="30" as="geometry" />
        </mxCell>
      </root>
    </mxGraphModel>
  </diagram>
</mxfile>
